<svg xmlns="http://www.w3.org/2000/svg" viewBox="0 0 317 80" width="317" height="80" role="img" aria-label="JobBoard">
  <title>JobBoard</title>
  <rect x="0.00" y="4.00" width="135.07" height="72.00" fill="#fad53b"/>
  <path fill="#1d1406" d="M36.11 37.65Q36.11 42.22 34.47 45.92Q32.82 49.61 30.14 52.23Q27.45 54.85 24.28 56.26Q21.1 57.66 18.04 57.66Q16.5 57.66 15.48 57.17Q14.46 56.68 13.95 55.77Q13.45 54.86 13.45 53.63Q13.45 52.15 14.4 51.13Q15.34 50.11 16.5 50.11Q16.93 50.11 17.6 50.59Q18.26 51.07 19.09 51.71Q19.93 52.36 20.96 52.84Q22 53.32 23.16 53.32Q24.9 53.32 25.71 52.33Q26.52 51.34 26.52 48.73V8.07L20.33 6.56V5.44H42.29V6.56L36.11 8.07Z M60.22 55.88Q63.34 55.88 65.41 54Q67.48 52.12 68.5 48.32Q69.52 44.53 69.52 38.81Q69.52 32.97 68.52 29.04Q67.52 25.11 65.49 23.11Q63.45 21.11 60.35 21.11Q57.23 21.11 55.17 22.99Q53.1 24.87 52.07 28.66Q51.05 32.45 51.05 38.16Q51.05 43.98 52.05 47.93Q53.05 51.87 55.08 53.87Q57.12 55.88 60.22 55.88ZM60.03 57.71Q54.92 57.71 50.83 55.26Q46.74 52.82 44.35 48.48Q41.96 44.14 41.96 38.5Q41.96 32.84 44.44 28.49Q46.92 24.15 51.12 21.71Q55.33 19.26 60.54 19.26Q65.76 19.26 69.84 21.71Q73.92 24.15 76.27 28.48Q78.62 32.81 78.62 38.47Q78.62 44.14 76.1 48.49Q73.58 52.83 69.36 55.27Q65.15 57.71 60.03 57.71Z M86.46 54.65 90.91 53.85 83.33 58.22 82.84 57.94 84.39 48.88V11.09Q83.92 10.77 83.14 10.21Q82.35 9.65 81.24 8.89Q80.14 8.12 78.73 7.14V6.47L92.71 3.42H93.22L92.84 9.75V48.29Q92.84 50.5 93.87 52.2Q94.9 53.9 96.7 54.85Q98.5 55.8 100.76 55.8Q103.9 55.8 106.12 54.02Q108.34 52.23 109.5 48.61Q110.66 44.98 110.66 39.5Q110.66 34.4 109.54 31.13Q108.41 27.85 106.14 26.29Q103.86 24.73 100.38 24.73Q98.62 24.73 97 25.12Q95.39 25.51 93.87 26.38Q92.36 27.26 90.88 28.76L90.45 27.92Q92.83 25.36 94.81 23.68Q96.8 22 98.5 21.03Q100.2 20.06 101.73 19.66Q103.27 19.26 104.77 19.26Q109.4 19.26 112.71 21.37Q116.01 23.48 117.78 27.33Q119.55 31.19 119.55 36.51Q119.55 41.58 118.07 45.53Q116.58 49.47 113.88 52.19Q111.18 54.9 107.49 56.31Q103.8 57.71 99.38 57.71Q97.16 57.71 94.91 57.4Q92.66 57.08 90.53 56.4Q88.39 55.72 86.46 54.65Z"/>
  <path fill="#eeebe5" d="M130.51 7.66 134.3 5.44H146.91Q152.61 5.44 156.15 6.95Q159.7 8.46 161.33 11.11Q162.97 13.76 162.97 17.18Q162.97 22.47 159.08 25.58Q155.18 28.7 149.17 29.31L150.25 28.73Q158.08 29.34 162.46 33.11Q166.84 36.88 166.84 42.51Q166.84 46.54 164.75 49.81Q162.67 53.08 158.02 55Q153.38 56.92 145.66 56.92H134.34L131.39 54.7H144.13Q148.29 54.7 151.28 53.4Q154.26 52.1 155.87 49.38Q157.48 46.67 157.48 42.4Q157.48 38.94 156.16 36.27Q154.85 33.61 152.12 32.1Q149.39 30.6 145.1 30.6H131.36L130.51 28.38H144.79Q149.04 28.38 151.57 25.76Q154.1 23.14 154.1 17.86Q154.1 14.77 152.85 12.48Q151.59 10.18 148.91 8.92Q146.22 7.66 141.91 7.66ZM122.57 56.92V55.81L128.82 54.2V8.13L122.57 6.56V5.44H138.41V56.92Z M188.42 55.88Q191.53 55.88 193.6 54Q195.67 52.12 196.7 48.32Q197.72 44.53 197.72 38.81Q197.72 32.97 196.72 29.04Q195.72 25.11 193.68 23.11Q191.65 21.11 188.55 21.11Q185.43 21.11 183.36 22.99Q181.3 24.87 180.27 28.66Q179.24 32.45 179.24 38.16Q179.24 43.98 180.24 47.93Q181.25 51.87 183.28 53.87Q185.31 55.88 188.42 55.88ZM188.23 57.71Q183.12 57.71 179.02 55.26Q174.93 52.82 172.54 48.48Q170.16 44.14 170.16 38.5Q170.16 32.84 172.63 28.49Q175.11 24.15 179.32 21.71Q183.53 19.26 188.73 19.26Q193.95 19.26 198.03 21.71Q202.11 24.15 204.46 28.48Q206.81 32.81 206.81 38.47Q206.81 44.14 204.3 48.49Q201.78 52.83 197.56 55.27Q193.34 57.71 188.23 57.71Z M232.4 33.14 232.65 34.75Q228.18 36.19 225.4 37.51Q222.62 38.83 221.16 40.18Q219.7 41.53 219.16 43.03Q218.62 44.54 218.62 46.37Q218.62 49.42 220.22 50.9Q221.82 52.39 224.2 52.39Q226.02 52.39 227.37 51.67Q228.72 50.96 229.48 49.54Q230.24 48.13 230.24 46.03V29.33Q230.24 25.87 228.51 24.05Q226.77 22.23 223.22 22.23Q221.5 22.23 219.85 22.46Q218.2 22.69 217.22 23.12L219.01 21.47Q218.85 23.15 218.6 24.64Q218.35 26.13 218.02 27.23Q217.68 28.34 217.22 28.92Q216.71 29.56 215.69 29.94Q214.68 30.32 213.54 30.32Q212.06 30.32 211.25 29.77Q210.44 29.21 210.44 28.11Q210.44 26.56 211.95 25Q213.45 23.44 215.88 22.14Q218.31 20.84 221.2 20.05Q224.09 19.26 226.84 19.26Q231.16 19.26 233.75 20.52Q236.35 21.77 237.52 24.04Q238.69 26.31 238.69 29.39V50.12Q238.69 51.22 239.04 51.9Q239.39 52.58 240.04 52.88Q240.68 53.19 241.51 53.19Q242.63 53.19 243.74 52.84Q244.84 52.5 246.02 51.73V52.95Q243.32 55.95 241.15 56.83Q238.98 57.71 236.53 57.71Q234.2 57.71 232.84 56.73Q231.48 55.75 230.88 53.84Q230.28 51.92 230.18 49.13L230.4 49.24Q229.75 51.81 228.37 53.71Q226.99 55.61 225.03 56.65Q223.07 57.69 220.69 57.69Q215.99 57.69 213.06 55.25Q210.13 52.82 210.13 48.32Q210.13 45.99 210.93 44.18Q211.73 42.38 214.03 40.73Q216.33 39.09 220.76 37.29Q225.18 35.48 232.4 33.14Z M270.07 19.37Q271.79 19.37 272.8 20.38Q273.81 21.39 273.81 23.12Q273.81 25.23 272.48 26.6Q271.14 27.98 269.15 27.98Q268.13 27.98 267.22 27.76Q266.32 27.54 265.37 27.32Q264.43 27.1 263.22 27.1Q262.17 27.1 261.26 27.43Q260.35 27.77 259.5 28.37Q258.65 28.97 257.73 29.84L257.72 28.23Q260.53 25.2 262.45 23.42Q264.38 21.64 265.71 20.77Q267.03 19.9 268.05 19.64Q269.06 19.37 270.07 19.37ZM258.42 26.13V54.79L263.87 55.9V56.92H245.22V55.9L249.96 54.79V26.95Q249.49 26.6 248.86 26.15Q248.23 25.69 247.3 25.01Q246.37 24.33 245.04 23.32V22.56L258.11 18.95H258.42Z M300.11 28.68Q300.11 25.36 297.87 23.26Q295.62 21.17 292.2 21.17Q289.07 21.17 286.84 22.95Q284.62 24.72 283.46 28.28Q282.29 31.84 282.29 37.25Q282.29 42.44 283.43 45.76Q284.57 49.09 286.86 50.67Q289.15 52.25 292.64 52.25Q295.36 52.25 297.67 51.33Q299.99 50.41 302.07 48.21L302.5 49.03Q300.3 51.59 298.45 53.28Q296.6 54.96 294.96 55.93Q293.33 56.91 291.8 57.31Q290.27 57.71 288.76 57.71Q284.06 57.71 280.62 55.53Q277.17 53.34 275.29 49.42Q273.41 45.49 273.41 40.28Q273.41 35.28 274.89 31.37Q276.38 27.46 279.08 24.76Q281.79 22.06 285.48 20.66Q289.17 19.26 293.57 19.26Q295.75 19.26 297.93 19.57Q300.12 19.87 302.22 20.51Q304.32 21.15 306.13 22.16L300.11 22.96V10.63Q299.68 10.4 298.67 9.82Q297.67 9.25 296.48 8.57Q295.29 7.9 294.25 7.31V6.56L308.69 3.42H308.97L308.56 9.46V52.69Q308.89 52.84 309.58 53.16Q310.28 53.47 311.12 53.84Q311.95 54.21 312.76 54.58Q313.57 54.95 314.14 55.21V56.06L300.67 57.98H300.32L300.11 52.55Z"/>
</svg>
